<?xml version="1.0" encoding="UTF-8" standalone="no"?>
<svg
   xmlns:dc="http://purl.org/dc/elements/1.1/"
   xmlns:cc="http://creativecommons.org/ns#"
   xmlns:rdf="http://www.w3.org/1999/02/22-rdf-syntax-ns#"
   xmlns:svg="http://www.w3.org/2000/svg"
   xmlns="http://www.w3.org/2000/svg"
   xmlns:sodipodi="http://sodipodi.sourceforge.net/DTD/sodipodi-0.dtd"
   xmlns:inkscape="http://www.inkscape.org/namespaces/inkscape"
   viewBox="0 0 83.146667 83.146667"
   height="83.146667"
   width="83.146667"
   xml:space="preserve"
   id="svg2"
   version="1.1"
   sodipodi:docname="Ostfalia_BM-links_RGB - Kopie.svg"
   inkscape:version="1.0.2-2 (e86c870879, 2021-01-15)"><sodipodi:namedview
     pagecolor="#ffffff"
     bordercolor="#666666"
     borderopacity="1"
     objecttolerance="10"
     gridtolerance="10"
     guidetolerance="10"
     inkscape:pageopacity="0"
     inkscape:pageshadow="2"
     inkscape:window-width="1920"
     inkscape:window-height="1009"
     id="namedview53"
     showgrid="false"
     inkscape:zoom="2.6277106"
     inkscape:cx="130.53188"
     inkscape:cy="41.573334"
     inkscape:window-x="-8"
     inkscape:window-y="-8"
     inkscape:window-maximized="1"
     inkscape:current-layer="svg2" /><metadata
     id="metadata8"><rdf:RDF><cc:Work
         rdf:about=""><dc:format>image/svg+xml</dc:format><dc:type
           rdf:resource="http://purl.org/dc/dcmitype/StillImage" /></cc:Work></rdf:RDF></metadata><defs
     id="defs6" /><g
     transform="matrix(1.3333333,0,0,-1.3333333,0,83.146667)"
     id="g10"><g
       transform="scale(0.1)"
       id="g12"><path
         id="path14"
         style="fill:#004077;fill-opacity:1;fill-rule:nonzero;stroke:none"
         d="m 126.133,613.41 373.762,-0.035 c 65.742,0.234 109.949,-54.57 109.949,-110.914 V 128.508 C 609.949,71.1445 564.766,18.4375 498.816,18.3516 H 67.4531 L 366.973,317.852 v -102.5 L 241.809,90.8594 499.016,90.8516 c 20.664,0 38.297,14.4924 38.297,38.0824 v 374.043 c -0.055,22.996 -18.219,37.925 -37.872,37.949 l -373.75,-0.024 C 104.324,541.023 87.4727,524.887 87.4727,503.086 L 87.5781,243.32 213.02,369.18 H 315.535 L 14.7773,68.2813 V 503.086 C 14.582,562.867 61.9805,613.41 126.133,613.41" /></g></g></svg>
